<?xml version="1.0" encoding="UTF-8" standalone="no"?>
<svg
   xmlns:dc="http://purl.org/dc/elements/1.1/"
   xmlns:cc="http://creativecommons.org/ns#"
   xmlns:rdf="http://www.w3.org/1999/02/22-rdf-syntax-ns#"
   xmlns:svg="http://www.w3.org/2000/svg"
   xmlns="http://www.w3.org/2000/svg"
   xmlns:sodipodi="http://sodipodi.sourceforge.net/DTD/sodipodi-0.dtd"
   xmlns:inkscape="http://www.inkscape.org/namespaces/inkscape"
   width="210mm"
   height="297mm"
   viewBox="0 0 210 297"
   version="1.1"
   id="svg848"
   inkscape:version="1.0.1 (3bc2e813f5, 2020-09-07)"
   sodipodi:docname="documentviewerlogo.svg">
  <defs
     id="defs842" />
  <sodipodi:namedview
     id="base"
     pagecolor="#ffffff"
     bordercolor="#666666"
     borderopacity="1.0"
     inkscape:pageopacity="0.0"
     inkscape:pageshadow="2"
     inkscape:zoom="1.1492088"
     inkscape:cx="460.54133"
     inkscape:cy="625.25619"
     inkscape:document-units="mm"
     inkscape:current-layer="layer1"
     inkscape:document-rotation="0"
     showgrid="false"
     inkscape:window-width="3840"
     inkscape:window-height="2066"
     inkscape:window-x="-11"
     inkscape:window-y="-11"
     inkscape:window-maximized="1" />
  <metadata
     id="metadata845">
    <rdf:RDF>
      <cc:Work
         rdf:about="">
        <dc:format>image/svg+xml</dc:format>
        <dc:type
           rdf:resource="http://purl.org/dc/dcmitype/StillImage" />
        <dc:title></dc:title>
      </cc:Work>
    </rdf:RDF>
  </metadata>
  <g
     inkscape:label="Layer 1"
     inkscape:groupmode="layer"
     id="layer1">
    <g
       id="g1445"
       transform="translate(-46.965071,-38.72785)">
      <path
         style="fill:#afcffb;stroke-width:0.352778"
         d="m 85.130466,261.74873 c -2.408171,-1.04738 -2.227689,5.02719 -2.227689,-74.97809 0,-64.98863 0.05626,-72.46328 0.552598,-73.4231 1.122479,-2.17063 -1.022199,-2.07135 44.745055,-2.07135 26.68397,0 42.12411,0.12607 42.70974,0.34872 0.50447,0.1918 4.09773,3.48586 7.98504,7.32014 3.8873,3.83428 7.13614,7.03756 7.21964,7.11841 0.0835,0.0808 0.15182,-5.99135 0.15182,-13.49375 V 98.928966 H 148.69583 111.125 v 4.586114 4.58611 h -3.88056 -3.88055 v -6.91293 c 0,-5.882601 0.0897,-7.064791 0.60186,-7.931802 1.30308,-2.205937 -1.19857,-2.088603 44.53015,-2.088603 34.95177,0 41.8571,0.07969 42.80918,0.494058 0.64018,0.278617 7.98083,7.355632 16.83381,16.229237 l 15.69861,15.73518 0.0913,57.68917 c 0.10086,63.71312 0.26549,59.11469 -2.15758,60.26451 -0.99962,0.47435 -2.47408,0.57674 -8.30581,0.57674 H 206.375 v -3.88056 -3.88055 h 4.93889 4.93889 v -52.55575 -52.55575 l -13.5789,-0.0963 -13.5789,-0.0963 6.65148,6.70277 c 3.65832,3.68653 6.91133,7.09529 7.2289,7.57503 0.52877,0.79876 0.57742,5.71187 0.57742,58.31405 0,63.69333 0.17843,59.04268 -2.30516,60.08039 -1.7736,0.74106 -114.412257,0.72654 -116.117154,-0.015 z M 195.79167,201.94008 v -52.56389 h -13.42308 c -11.21883,0 -13.59047,-0.0866 -14.44247,-0.52715 -2.16636,-1.12027 -2.12056,-0.77565 -2.12056,-15.95551 V 119.0373 H 128.23472 90.663888 v 67.73334 67.73333 h 52.563892 52.56389 z m -67.35083,22.25572 c -7.44381,-4.25171 -13.9485,-8.14457 -14.45488,-8.65081 l -0.92068,-0.92042 -0.0986,-16.05664 c -0.0853,-13.89999 -0.0253,-16.21114 0.44732,-17.20701 0.46813,-0.98652 2.51677,-2.27858 14.38267,-9.07103 10.59639,-6.06574 14.16803,-7.94696 15.25129,-8.033 1.28228,-0.10186 2.66779,0.60198 14.82008,7.52852 7.37305,4.20249 13.8818,8.10579 14.46389,8.67401 l 1.05833,1.03312 v 16.56698 16.56699 l -1.05833,1.03312 c -0.58209,0.56822 -7.0763,4.46065 -14.43159,8.64984 -10.62562,6.05181 -13.63542,7.61672 -14.64928,7.61672 -1.01563,0 -4.03813,-1.57763 -14.81024,-7.73039 z m 10.90638,-13.36139 v -10.50845 l -9.35375,-5.34538 -9.35375,-5.34537 0.0933,10.61107 0.0933,10.61107 9.17222,5.24214 c 5.04472,2.88317 9.21191,5.24241 9.26042,5.24275 0.0485,3.4e-4 0.0882,-4.72818 0.0882,-10.50783 z m 19.22639,4.05817 7.05556,-4.0428 0.0933,-10.58952 0.0933,-10.58953 -9.35373,5.32291 -9.35373,5.3229 v 10.54352 10.54352 l 2.20486,-1.2341 c 1.21268,-0.67876 5.37987,-3.05337 9.26042,-5.2769 z m -6.39001,-26.42645 c 4.48465,-2.55182 8.4415,-4.83247 8.79301,-5.06811 0.55899,-0.37474 -0.4906,-1.07469 -8.37263,-5.58347 -4.95646,-2.83527 -9.17575,-5.15503 -9.3762,-5.15503 -0.46192,0 -18.428,10.2646 -18.26005,10.43255 0.73283,0.73282 18.20961,10.32219 18.57282,10.19075 0.26904,-0.0974 4.15841,-2.26487 8.64305,-4.81669 z m 37.96362,-46.94206 c 0,-0.0501 -3.73062,-3.8191 -8.29027,-8.37566 l -8.29028,-8.28465 v 8.37566 8.37566 h 8.29028 c 4.55965,0 8.29027,-0.041 8.29027,-0.091 z m 20.46112,-20.10834 c 0,-0.05 -3.73063,-3.8191 -8.29028,-8.37565 l -8.29028,-8.28465 v 8.37566 8.37565 h 8.29028 c 4.55965,0 8.29028,-0.0409 8.29028,-0.091 z"
         id="path1459" />
      <path
         style="fill:#6499f5;stroke-width:0.352778"
         d="m 85.861788,262.02458 c -0.409836,-0.0817 -1.203586,-0.62711 -1.763889,-1.21194 l -1.018734,-1.06333 V 186.75426 113.7592 l 1.153249,-1.15331 1.153248,-1.15331 41.356478,-0.10438 c 22.74606,-0.0574 42.07085,-0.005 42.94397,0.11742 1.50242,0.2099 1.99401,0.6262 9.17222,7.76727 l 7.58473,7.54548 -0.0962,-13.9247 -0.0961,-13.924704 H 148.68788 111.125 v 4.586114 4.58611 h -3.88056 -3.88055 v -6.53772 c 0,-7.033227 0.25746,-8.38354 1.80512,-9.467566 0.74837,-0.524182 4.62804,-0.575272 43.68428,-0.575272 h 42.86296 l 15.6562,15.610418 c 8.86243,8.83651 15.86997,16.10302 16.14882,16.74561 0.4149,0.95611 0.49262,10.10013 0.49262,57.96127 0,49.72556 -0.0659,56.95346 -0.52715,57.84548 -1.05775,2.04545 -1.39796,2.12056 -9.60551,2.12056 H 206.375 v -3.70417 -3.70416 h 4.93889 4.93889 V 181.65536 128.91508 H 202.4094 188.56602 l 7.40519,7.41149 7.40518,7.41148 v 58.02201 58.02201 l -1.15328,1.15331 -1.15327,1.15331 -57.23145,0.0423 c -31.4773,0.0233 -57.566766,-0.0246 -57.976602,-0.10636 z m 109.929882,-60.0845 v -52.56389 l -12.96459,-0.002 c -8.01134,-0.001 -13.47702,-0.14427 -14.30585,-0.37442 -0.90126,-0.25028 -1.56627,-0.74148 -2.02715,-1.49734 -0.64811,-1.06293 -0.68596,-1.87774 -0.6872,-14.79502 l -0.001,-13.66999 H 128.23472 90.663888 v 67.73334 67.73333 h 52.563892 52.56389 z m -67.54325,22.09431 c -8.38872,-4.80456 -14.02491,-8.24751 -14.46389,-8.83547 -0.69935,-0.9367 -0.71925,-1.41088 -0.71925,-17.1394 0,-15.72851 0.0199,-16.20269 0.71925,-17.13939 0.43898,-0.58796 6.07517,-4.03091 14.46389,-8.83547 10.72647,-6.14348 14.01577,-7.8721 14.97936,-7.8721 0.96359,0 4.25289,1.72862 14.97936,7.8721 8.38872,4.80456 14.02491,8.24751 14.46389,8.83547 0.69935,0.9367 0.71925,1.41088 0.71925,17.13939 0,15.72852 -0.0199,16.2027 -0.71925,17.1394 -0.43898,0.58796 -6.07517,4.03091 -14.46389,8.83547 -10.72647,6.14348 -14.01577,7.8721 -14.97936,7.8721 -0.96359,0 -4.25289,-1.72862 -14.97936,-7.8721 z m 11.0988,-13.23876 v -10.54722 l -7.8493,-4.49177 c -4.31712,-2.47047 -8.524,-4.88306 -9.34861,-5.3613 l -1.49931,-0.86952 0.0117,10.70504 0.0117,10.70505 9.07236,5.18196 c 4.9898,2.85007 9.19142,5.19164 9.33694,5.20347 0.14552,0.0118 0.26458,-4.72473 0.26458,-10.52571 z m 17.43022,5.25556 9.00655,-5.11528 0.0108,-10.7121 0.0108,-10.7121 -0.79375,0.50783 c -0.43656,0.2793 -4.64344,2.69898 -9.34861,5.37708 l -8.55487,4.86925 v 10.56789 c 0,6.43627 0.12952,10.52192 0.33128,10.4503 0.18218,-0.0647 4.3842,-2.41947 9.33781,-5.23287 z m -4.16449,-27.73793 c 7.29401,-4.17242 8.93042,-5.243 8.54902,-5.59296 -0.25943,-0.23805 -4.40075,-2.66817 -9.20294,-5.40026 l -8.73125,-4.96745 -8.73125,4.96745 c -4.80219,2.73209 -8.93837,5.15707 -9.19151,5.38882 -0.36585,0.33494 1.37078,1.4753 8.46667,5.55963 4.90981,2.82604 9.12799,5.15326 9.37373,5.17159 0.24575,0.0183 4.50614,-2.28874 9.46753,-5.12682 z M 190.5,141.52413 c 0,-0.05 -3.81,-3.89847 -8.46667,-8.55211 l -8.46666,-8.46115 v 8.5521 8.55211 h 8.46666 c 4.65667,0 8.46667,-0.0409 8.46667,-0.0909 z m 12.17084,-28.48405 c -4.65364,-4.65667 -8.58146,-8.46667 -8.7285,-8.46667 -0.14703,0 -0.26734,3.81 -0.26734,8.46667 v 8.46666 h 8.7285 8.72849 z"
         id="path1457" />
      <path
         style="fill:#0e75f7;stroke-width:0.352778"
         d="m 84.707895,261.33703 c -1.903681,-1.33339 -1.805274,2.72101 -1.80315,-74.29048 0.0014,-47.82061 0.121698,-71.79174 0.364927,-72.66751 0.19963,-0.71878 0.77578,-1.63159 1.28033,-2.02847 0.912738,-0.71796 1.133771,-0.7216 43.787938,-0.7216 h 42.87057 l 7.90397,7.8493 c 5.08895,5.05376 7.77045,7.49561 7.52908,6.8562 -0.24031,-0.63658 -0.37489,-5.73412 -0.37489,-14.1993 V 98.928966 h -37.74723 -37.74722 v 4.586114 4.58611 h -3.52778 -3.52777 v -7.07875 c 0,-4.180402 0.14872,-7.35664 0.36323,-7.757459 0.97077,-1.813899 -0.81131,-1.744349 44.69631,-1.744349 38.96866,0 42.34052,0.04621 43.1446,0.591341 1.31509,0.891568 29.55331,29.011037 30.72343,30.594227 l 1.01687,1.37585 v 57.64943 c 0,38.86484 -0.11835,57.87058 -0.36323,58.32814 -0.81941,1.53109 -2.0021,1.74435 -9.67341,1.74435 H 206.375 v -3.70417 -3.70416 h 5.11528 5.11528 v -52.74028 -52.74028 h -13.55309 c -7.4542,0 -13.84389,-0.10037 -14.19931,-0.22305 -0.35542,-0.12267 2.64798,3.09354 6.67423,7.14713 5.38263,5.4192 7.41374,7.69551 7.67291,8.59919 0.22819,0.79564 0.35248,21.10633 0.35248,57.59893 0,60.79298 0.0858,57.97532 -1.80512,59.29975 -0.75119,0.52615 -5.74799,0.57527 -58.51988,0.57527 -52.77189,0 -57.768698,-0.0491 -58.519885,-0.57527 z M 195.79167,201.76369 V 149.02341 H 182.0389 168.28613 l -1.15209,-1.0291 -1.15209,-1.0291 -0.0999,-13.96395 -0.0999,-13.96396 H 128.22299 90.663888 v 67.73334 67.73333 h 52.563892 52.56389 z m -67.23527,22.36282 c -7.54998,-4.28982 -14.08442,-8.18805 -14.52098,-8.66273 l -0.79375,-0.86305 v -16.5218 c 0,-15.21858 0.0487,-16.58004 0.61736,-17.26016 0.97006,-1.1602 28.30736,-16.62591 29.38807,-16.62591 1.14236,0 28.4519,15.51692 29.34158,16.67151 0.55722,0.72311 0.61004,2.19862 0.61561,17.19515 l 0.006,16.40417 -0.792,0.9291 c -1.112,1.30449 -27.99947,16.5334 -29.19062,16.5334 -0.58128,0 -6.21991,-2.99764 -14.67138,-7.79968 z m 10.65464,-23.79636 c -0.11478,-0.29913 -17.02081,-10.18268 -18.26577,-10.6785 -0.1624,-0.0647 -0.29527,4.70036 -0.29527,10.58897 v 10.70656 l 9.26042,5.28603 9.26041,5.28604 0.0936,-10.40309 c 0.0515,-5.7217 0.0274,-10.5754 -0.0534,-10.78601 z m 26.59452,-0.0828 v -10.71521 l -2.20486,1.23411 c -1.21268,0.67876 -5.37987,3.05336 -9.26042,5.27691 l -7.05556,4.04279 -0.0933,10.78363 -0.0933,10.78363 9.35368,-5.34533 9.35368,-5.34533 z M 152.2049,188.65138 c 4.66696,-2.65211 8.77345,-5.01581 9.12553,-5.25265 0.56072,-0.37718 -0.52239,-1.09513 -8.72804,-5.78546 l -9.36821,-5.35484 -9.39181,5.36761 c -6.25349,3.574 -9.23109,5.45815 -8.91084,5.63856 0.26453,0.14903 4.37035,2.50268 9.12403,5.23035 4.75368,2.72767 8.87276,4.96369 9.1535,4.96893 0.28075,0.005 4.32888,-2.16038 8.99584,-4.8125 z m 30.00482,-55.50297 c -4.65363,-4.65667 -8.58145,-8.46667 -8.72849,-8.46667 -0.14704,0 -0.26734,3.81 -0.26734,8.46667 v 8.46667 h 8.7285 8.72849 z m 28.75139,-11.73256 c 0,-0.05 -3.88937,-3.97784 -8.64305,-8.72855 l -8.64306,-8.63766 v 8.72855 8.72855 h 8.64306 c 4.75368,0 8.64305,-0.0409 8.64305,-0.0909 z"
         id="path1455" />
      <path
         style="fill:#1065f6;stroke-width:0.352778"
         d="m 84.707895,261.33703 c -1.826162,-1.27909 -1.805118,-0.93705 -1.805118,-29.34121 0,-14.52625 0.105505,-39.05822 0.234452,-54.5155 l 0.234453,-28.10413 h 3.41165 3.411651 l 0.234452,28.10413 c 0.128948,15.45728 0.234453,39.11103 0.234453,52.56389 v 24.45976 h 52.563892 52.56389 v -24.45976 c 0,-13.45286 0.1055,-37.10661 0.23445,-52.56389 l 0.23445,-28.10413 h 3.41165 3.41165 l 0.23446,28.10413 c 0.40986,49.13103 0.31073,80.74429 -0.25745,82.10415 -1.05902,2.5346 4.25559,2.32783 -59.8331,2.32783 -52.77189,0 -57.768698,-0.0491 -58.519885,-0.57527 z M 206.375,238.0998 v -3.70416 h 5.11528 5.11528 v -42.50973 -42.50972 h 3.52778 3.52777 v 45.00236 c 0,30.19071 -0.11955,45.22574 -0.36323,45.68107 -0.81941,1.53109 -2.0021,1.74435 -9.67341,1.74435 H 206.375 Z m -77.8186,-13.97576 c -7.54998,-4.29118 -14.08363,-8.22025 -14.51923,-8.73125 l -0.792,-0.9291 -0.002,-16.1571 c -0.001,-13.14792 0.0901,-16.33453 0.49123,-17.10972 0.72473,-1.40041 27.74176,-16.77989 29.49312,-16.78901 1.73922,-0.009 28.75831,15.37191 29.49254,16.78901 0.40222,0.77629 0.49212,3.94316 0.48573,17.10972 -0.007,14.76081 -0.0605,16.22546 -0.61736,16.94809 -0.89896,1.16664 -28.2,16.67151 -29.35524,16.67151 -0.58879,0 -6.16737,-2.96552 -14.67703,-7.80215 z m 10.65464,-23.79389 c -0.11478,-0.29913 -17.02081,-10.18268 -18.26577,-10.6785 -0.1624,-0.0647 -0.29527,4.70036 -0.29527,10.58897 v 10.70656 l 9.26042,5.28603 9.26041,5.28604 0.0936,-10.40309 c 0.0515,-5.7217 0.0274,-10.5754 -0.0534,-10.78601 z m 26.59452,-0.0524 c 0,-5.87666 -0.0614,-10.68484 -0.13644,-10.68484 -0.075,0 -4.24223,2.34795 -9.26042,5.21767 l -9.12398,5.21767 -0.0933,10.8125 -0.0933,10.8125 9.35368,-5.34533 9.35368,-5.34533 z m -13.08033,-11.89491 c 8.1326,-4.61571 9.20421,-5.32254 8.66605,-5.71605 -0.33775,-0.24697 -4.56271,-2.69794 -9.3888,-5.44659 l -8.7747,-4.99754 -8.7747,4.99754 c -4.82609,2.74865 -9.03941,5.1911 -9.36292,5.42766 -0.5038,0.36839 0.74279,1.1964 8.68651,5.76975 5.10109,2.9368 9.3633,5.31547 9.47157,5.28594 0.10826,-0.0295 4.37291,-2.42385 9.47699,-5.32071 z"
         id="path1453" />
      <path
         style="fill:#1154eb;stroke-width:0.352778"
         d="m 84.707895,261.33703 c -2.024472,-1.41799 -2.036879,-1.77376 -1.570878,-45.0513 l 0.234241,-21.75398 h 3.412074 3.412074 l 0.234241,21.75398 c 0.128831,11.9647 0.234241,25.45845 0.234241,29.98611 v 8.23213 h 52.563892 52.56389 v -8.23213 c 0,-4.52766 0.10541,-18.02141 0.23424,-29.98611 l 0.23424,-21.75398 h 3.41207 3.41208 l 0.23424,21.75398 c 0.36591,33.98228 0.31868,41.91937 -0.25766,43.29874 -1.05902,2.5346 4.25559,2.32783 -59.8331,2.32783 -52.77189,0 -57.768698,-0.0491 -58.519885,-0.57527 z M 206.375,238.0998 v -3.70416 h 5.11528 5.11528 v -19.93195 -19.93194 h 3.52778 3.52777 v 22.42458 c 0,14.7055 -0.12503,22.65821 -0.36323,23.10329 -0.81941,1.53109 -2.0021,1.74435 -9.67341,1.74435 H 206.375 Z m -78.08436,-14.20661 c -9.52243,-5.44183 -14.21141,-8.31439 -14.53958,-8.90723 -0.37709,-0.68121 -0.48716,-3.04362 -0.49689,-10.66463 l -0.0125,-9.78958 h 3.70416 3.70417 v 8.25257 8.25257 l 9.26042,5.27603 c 5.09323,2.90182 9.37948,5.2113 9.525,5.13217 0.14552,-0.0791 0.26458,-4.88276 0.26458,-10.67473 V 200.2395 l -4.80564,-2.76568 -4.80565,-2.76568 6.56953,-0.096 c 3.61325,-0.0528 9.52583,-0.0528 13.13907,0 l 6.56953,0.096 -4.80564,2.76568 -4.80564,2.76568 v 10.53086 c 0,5.79197 0.11906,10.60072 0.26458,10.6861 0.14552,0.0854 4.43177,-2.22811 9.525,-5.14109 l 9.26042,-5.29632 v -8.24366 -8.24364 h 3.70416 3.70417 v 9.7189 c 0,7.6516 -0.10526,9.92154 -0.49486,10.67153 -0.3692,0.71073 -4.06604,2.9905 -14.55916,8.97832 -7.94282,4.53251 -14.44509,8.02552 -14.93917,8.02529 -0.49359,-2.3e-4 -7.0003,-3.50094 -14.93006,-8.0326 z"
         id="path1451" />
      <path
         style="fill:#1340dd;stroke-width:0.352778"
         d="m 84.286752,260.88111 -1.031198,-1.0312 v -12.55075 -12.55075 h 3.527778 3.527778 v 9.87778 9.87778 h 52.91667 52.91667 v -9.87778 -9.87778 h 3.52777 3.52778 v 12.55075 12.55075 l -1.0312,1.0312 -1.03119,1.03119 H 143.22778 85.317946 Z M 206.375,238.29563 v -3.54722 h 8.64306 8.64305 v 2.28749 c 0,2.02845 -0.11649,2.41796 -1.02872,3.43959 l -1.02873,1.15209 -7.61433,0.10764 -7.61433,0.10763 z"
         id="path1449" />
      <path
         style="fill:#143edb;stroke-width:0.352778"
         d="m 85.195832,261.50284 c -1.120842,-0.61639 -1.923934,-1.80235 -1.932432,-2.85373 l -0.0078,-0.97014 H 143.22778 203.2 l -0.008,0.97014 c -0.009,1.08585 -0.83718,2.27577 -1.99743,2.86913 -1.08757,0.55618 -114.987021,0.54106 -115.998894,-0.0154 z"
         id="path1447" />
    </g>
  </g>
</svg>
